<svg width="82" height="13" viewBox="0 0 82 13" fill="none" xmlns="http://www.w3.org/2000/svg">
<path d="M23.1422 2.09551C21.2289 2.09551 19.5889 3.64439 19.5889 5.55773V7.28884C19.5889 9.20217 21.1378 10.7511 23.1422 10.7511H27.1511C29.0644 10.7511 30.7044 9.20217 30.7044 7.28884V5.46662C30.7044 3.55328 29.1555 2.00439 27.1511 2.00439C27.1511 2.09551 23.1422 2.09551 23.1422 2.09551ZM23.0511 4.28217H27.3333C27.9711 4.28217 28.5178 4.64662 28.5178 5.37551V7.47106C28.5178 8.10884 28.0622 8.65551 27.3333 8.65551H22.96C22.3222 8.65551 21.6844 8.19995 21.6844 7.47106V5.37551C21.7755 4.64662 22.3222 4.28217 23.0511 4.28217Z" fill="black"/>
<path d="M48.5622 2.0957H55.9422V4.28237H48.4711C47.8334 4.28237 47.2867 4.82904 47.2867 5.46681V5.55792V7.28904V7.38015C47.2867 8.01793 47.8334 8.56459 48.4711 8.56459H55.9422V10.7513H48.5622C46.6489 10.7513 45.0089 9.20237 45.0089 7.28904V7.10681V5.74015V5.64904C45.0089 3.64459 46.6489 2.0957 48.5622 2.0957Z" fill="black"/>
<path d="M34.9866 4.28237V6.28681H39.1777C40.4533 6.28681 40.4533 4.28237 39.1777 4.28237H34.9866ZM39.9978 2.0957C41.5466 2.0957 42.8222 3.64459 42.8222 5.19348C42.8222 6.01348 42.4578 7.0157 41.82 7.47126L43.7333 10.6601H41.2733L39.9066 8.56459H34.8955V10.6601H32.7089V3.55348C32.7089 2.64237 33.2555 2.0957 33.8933 2.0957H39.9978Z" fill="black"/>
<path d="M11.2067 2.00444C10.0222 0.728889 8.29111 0 6.46889 0C2.91556 0 0 2.82444 0 6.37778C0 9.93111 2.91556 12.7556 6.46889 12.7556C8.38222 12.7556 10.0222 11.9356 11.2067 10.7511L15.3067 6.37778L11.2067 2.00444ZM6.46889 10.5689C4.1 10.5689 2.27778 8.65555 2.27778 6.37778C2.27778 4.1 4.19111 2.18667 6.46889 2.18667C8.74667 2.18667 10.66 4.1 10.66 6.37778C10.66 8.65555 8.83778 10.5689 6.46889 10.5689Z" fill="black"/>
<path d="M6.55996 8.56449C7.7444 8.56449 8.74662 7.56227 8.74662 6.37783C8.74662 5.19338 7.7444 4.19116 6.55996 4.19116C5.37551 4.19116 4.37329 5.19338 4.37329 6.37783C4.37329 7.56227 5.37551 8.56449 6.55996 8.56449Z" fill="black"/>
<path d="M62.5933 4.28237H61.4088C60.7711 4.28237 60.2244 4.82904 60.2244 5.46681V6.37792H66.7844V5.46681C66.7844 4.82904 66.2377 4.28237 65.5999 4.28237H62.5933ZM61.5911 2.0957H62.5933H65.4177C67.3311 2.0957 68.971 3.64459 68.971 5.55792V6.37792V8.38237V10.7513H66.7844V8.47348H60.2244V10.6601H58.0377V8.29126V6.37792V5.55792C58.1288 3.64459 59.6777 2.0957 61.5911 2.0957Z" fill="black"/>
<path d="M78.4466 2.0957H75.6222H74.62C72.7067 2.0957 71.0667 3.64459 71.0667 5.55792V6.37792V8.38237V10.7513H73.2533V8.47348V6.1957V5.46681C73.2533 4.82904 73.8 4.28237 74.4378 4.28237H75.3489V10.7513H77.5355V4.19126H78.4466C79.0844 4.19126 79.6311 4.73793 79.6311 5.3757V6.10459V6.28681V10.6601H82V8.29126V6.37792V5.55792C82 3.64459 80.4511 2.0957 78.4466 2.0957Z" fill="black"/>
</svg>
