<svg xmlns="http://www.w3.org/2000/svg" version="1.1" xmlns:xlink="http://www.w3.org/1999/xlink" width="16" height="13"><svg width="16" height="13" viewBox="0 0 16 13" fill="none" xmlns="http://www.w3.org/2000/svg">
<path d="M11.2067 2.00444C10.0222 0.728889 8.29111 0 6.46889 0C2.91556 0 0 2.82444 0 6.37778C0 9.93111 2.91556 12.7556 6.46889 12.7556C8.38222 12.7556 10.0222 11.9356 11.2067 10.7511L15.3067 6.37778L11.2067 2.00444ZM6.46889 10.5689C4.1 10.5689 2.27778 8.65555 2.27778 6.37778C2.27778 4.1 4.19111 2.18667 6.46889 2.18667C8.74667 2.18667 10.66 4.1 10.66 6.37778C10.66 8.65555 8.83778 10.5689 6.46889 10.5689Z" fill="black"></path>
<path d="M6.55996 8.56449C7.7444 8.56449 8.74662 7.56227 8.74662 6.37783C8.74662 5.19338 7.7444 4.19116 6.55996 4.19116C5.37551 4.19116 4.37329 5.19338 4.37329 6.37783C4.37329 7.56227 5.37551 8.56449 6.55996 8.56449Z" fill="black"></path>
</svg><style>@media (prefers-color-scheme: light) { :root { filter: none; } }
@media (prefers-color-scheme: dark) { :root { filter: invert(100%); } }
</style></svg>